#N canvas 473 273 316 469 10;
#X obj 25 14 mtcf-comm;
#X obj 164 378 mtcf-polygon;
#X obj 164 251 mtcf-square 0.1 0.1;
#X obj 164 418 mtcf-finger;
#X obj 164 398 route finger;
#X obj 25 251 mtcf-translate 0.5 0.5;
#X obj 25 271 mtcf-rotate 45;
#X obj 25 291 mtcf-scale 5 1;
#X obj 176 358 r boxColor;
#N canvas 0 44 702 978 colorChange 0;
#X obj 236 87 inlet;
#X obj 236 108 * 255;
#X obj 161 212 s boxColor;
#X obj 161 191 mtcf-rgbcolor;
#X obj 236 131 - 255;
#X obj 236 150 abs;
#X obj 161 171 +;
#X connect 0 0 1 0;
#X connect 1 0 4 0;
#X connect 1 0 6 0;
#X connect 3 0 2 0;
#X connect 4 0 5 0;
#X connect 5 0 3 2;
#X connect 5 0 3 1;
#X connect 5 0 6 1;
#X connect 6 0 3 0;
#X restore 179 438 pd colorChange;
#X obj 25 178 t b b;
#X obj 25 157 bng 20 250 50 0 empty empty empty 17 7 0 10 -258113 -1
-1;
#X connect 1 0 4 0;
#X connect 2 0 1 0;
#X connect 3 1 9 0;
#X connect 4 0 3 0;
#X connect 5 0 6 0;
#X connect 6 0 7 0;
#X connect 7 0 1 0;
#X connect 8 0 1 0;
#X connect 10 0 5 0;
#X connect 10 1 2 0;
#X connect 11 0 10 0;
