#N canvas 952 352 828 470 10;
#X obj 17 6 mtcf-comm;
#X obj 307 127 mtcf-reset;
#X obj 307 91 bng 15 250 50 0 empty empty empty 17 7 0 10 -262144 -1
-1;
#X obj 390 127 mtcf-help;
#N canvas 81 89 1295 969 slider 0;
#X floatatom 263 607 5 0 0 0 - - -;
#X floatatom 297 607 5 0 0 0 - - -;
#X floatatom 331 607 5 0 0 0 - - -;
#X obj 246 608 tgl 15 0 empty empty empty 17 7 0 10 -262144 -1 -1 0
1;
#X obj 200 679 mtcf-itransformpoint;
#X obj 226 544 route finger matrix;
#X obj 466 644 mtcf-draw_position 0 -0.4 0;
#X obj 673 725 clip -0.4 0.4;
#X obj -21 -18 inlet;
#X obj 6 206 t b b;
#X obj 673 756 expr ( $f1 + 0.4 ) / 0.8;
#X obj 699 902 outlet;
#X msg 451 820 touchenable 0;
#X obj -21 27 route bang;
#X text -63 890 MTCF mobile PD Client;
#X text -65 905 (C) Daniel Gallardo Grassot daniel.gallardo@upf.edu
;
#X text -64 922 This software (client) is released under the MIT licence
;
#X obj 869 444 expr ( $f1 * 0.8 ) - 0.4;
#X obj 869 415 clip 0 1;
#X obj 34 455 mtcf-rectangle 0.08 0.8;
#X obj 391 129 _mtcf-route color;
#X obj 163 86 _mtcf-route matrix;
#X obj 268 108 _mtcf-route transform;
#X obj 432 781 t b b b;
#X obj 226 510 mtcf-polygon;
#X obj 408 892 mtcf-polygon;
#X obj 226 578 mtcf-finger 0 0 0 0;
#X obj 283 737 list prepend matrix;
#X obj 545 821 mtcf-circle 0.04 30;
#X obj 313 818 mtcf-rgbcolor 255 0 0;
#X obj 146 856 mtcf-polygon;
#X obj 146 812 mtcf-rectangle 0.03 0.8;
#X obj -21 164 t b b b;
#X obj 884 561 print;
#X obj 869 374 route float;
#X msg -64 455 drawpolygon 0;
#X connect 0 0 4 1;
#X connect 1 0 4 2;
#X connect 4 1 7 0;
#X connect 5 0 26 0;
#X connect 5 1 4 0;
#X connect 5 1 27 0;
#X connect 6 0 25 0;
#X connect 7 0 6 1;
#X connect 7 0 10 0;
#X connect 8 0 13 0;
#X connect 9 0 35 0;
#X connect 9 1 19 0;
#X connect 10 0 11 0;
#X connect 12 0 25 0;
#X connect 13 0 32 0;
#X connect 13 1 21 0;
#X connect 17 0 6 1;
#X connect 18 0 17 0;
#X connect 18 0 11 0;
#X connect 19 0 24 0;
#X connect 20 0 24 0;
#X connect 20 1 34 0;
#X connect 21 0 24 0;
#X connect 21 1 22 0;
#X connect 22 0 24 0;
#X connect 22 1 20 0;
#X connect 23 0 29 0;
#X connect 23 1 12 0;
#X connect 23 2 28 0;
#X connect 24 0 5 0;
#X connect 26 1 3 0;
#X connect 26 2 0 0;
#X connect 26 3 1 0;
#X connect 26 4 2 0;
#X connect 27 0 25 0;
#X connect 27 0 30 0;
#X connect 28 0 25 0;
#X connect 29 0 25 0;
#X connect 31 0 30 0;
#X connect 32 0 23 0;
#X connect 32 1 9 0;
#X connect 32 2 31 0;
#X connect 34 0 18 0;
#X connect 34 0 33 0;
#X connect 35 0 24 0;
#X restore -200 294 pd slider;
#X obj -338 251 mtcf-translate 0.1 0.5;
#X obj -227 177 bng 15 250 50 0 empty empty empty 17 7 0 10 -262144
-1 -1;
#X obj -227 213 t b b;
#X floatatom -181 396 5 0 0 0 - - -;
#N canvas 362 248 483 644 button 0;
#X obj 157 208 route finger;
#X obj 371 475 outlet;
#X obj 174 358 sel 1;
#X obj 239 422 list prepend pressed;
#X obj 239 450 route list;
#X msg 11 431 drawpolygon 1;
#X msg 103 431 drawpolygon 0;
#X obj 34 -103 inlet;
#X obj 34 -81 route bang drawstroke;
#X msg 256 65 strokecolor 0 255 0;
#X msg 273 86 drawstroke 1;
#X msg 288 106 strokewidth 5;
#X msg 300 126 drawpolygon 0;
#X obj 281 32 t b b b b;
#X obj 34 -51 t b b;
#X obj 157 169 mtcf-polygon;
#X obj 157 241 mtcf-finger 0 0 0;
#X obj 40 121 mtcf-circle 0.08 40;
#X connect 0 0 16 0;
#X connect 0 1 1 0;
#X connect 2 0 5 0;
#X connect 2 1 6 0;
#X connect 3 0 4 0;
#X connect 4 0 1 0;
#X connect 5 0 15 0;
#X connect 6 0 15 0;
#X connect 7 0 8 0;
#X connect 8 0 14 0;
#X connect 8 2 15 0;
#X connect 9 0 15 0;
#X connect 10 0 15 0;
#X connect 11 0 15 0;
#X connect 12 0 15 0;
#X connect 13 0 9 0;
#X connect 13 1 10 0;
#X connect 13 2 11 0;
#X connect 13 3 12 0;
#X connect 14 0 13 0;
#X connect 14 1 17 0;
#X connect 15 0 0 0;
#X connect 16 1 2 0;
#X connect 16 1 3 0;
#X connect 17 0 15 0;
#X restore -6 305 pd button;
#X obj -52 182 bng 15 250 50 0 empty empty empty 17 7 0 10 -262144
-1 -1;
#X obj -52 218 t b b;
#X obj -163 256 mtcf-translate 0.3 0.5;
#N canvas 0 89 1920 991 knob 0;
#X obj 102 108 mtcf-polygon;
#X obj 363 307 mtcf-polygon;
#X obj 59 24 mtcf-circle 0.2 40;
#X obj 352 256 mtcf-circle 0.05 40;
#X obj 416 223 mtcf-rgbcolor 255 0 0;
#X obj 102 164 list prepend matrix;
#X obj 350 164 t b b;
#X obj 555 529 mtcf-polygon;
#X msg 552 346 addvertex -0.01 0;
#X msg 564 369 addvertex 0.01 0;
#X obj 584 427 mtcf-rgbcolor 255 0 0;
#X floatatom 736 451 5 0 0 0 - - -;
#X obj 43 456 mtcf-itransformpoint;
#X obj 102 137 route matrix finger;
#X obj 84 326 mtcf-finger;
#X floatatom 106 411 5 0 0 0 - - -;
#X floatatom 149 410 5 0 0 0 - - -;
#X floatatom 37 605 5 0 0 0 - - -;
#X obj 95 504 atan2;
#X obj 95 532 + 3.14159;
#X msg 574 391 addvertex 0 -0.2;
#X msg 544 319 clearvertex;
#X obj 95 559 / 6.28318;
#X obj 107 600 * -365;
#X obj 126 -44 t b b b;
#X obj 95 658 outlet;
#X obj 401 -34 _mtcf-route transform;
#X obj 397 11 clip 0 1;
#X obj 736 177 * -360;
#X obj 222 -191 inlet;
#X obj 607 495 mtcf-rotate 0;
#X obj 219 -142 route bang float;
#X obj 726 500 mtcf-visibility;
#X obj 629 256 t b b b b b b b;
#X connect 0 0 13 0;
#X connect 2 0 0 0;
#X connect 3 0 1 0;
#X connect 4 0 1 0;
#X connect 5 0 1 0;
#X connect 5 0 7 0;
#X connect 6 0 4 0;
#X connect 6 1 3 0;
#X connect 8 0 7 0;
#X connect 9 0 7 0;
#X connect 10 0 7 0;
#X connect 11 0 30 1;
#X connect 12 0 18 0;
#X connect 12 1 18 1;
#X connect 13 0 5 0;
#X connect 13 0 12 0;
#X connect 13 1 14 0;
#X connect 14 2 15 0;
#X connect 14 3 16 0;
#X connect 15 0 12 1;
#X connect 16 0 12 2;
#X connect 18 0 19 0;
#X connect 19 0 22 0;
#X connect 20 0 7 0;
#X connect 21 0 7 0;
#X connect 22 0 17 0;
#X connect 22 0 23 0;
#X connect 22 0 25 0;
#X connect 23 0 11 0;
#X connect 24 0 2 0;
#X connect 24 1 6 0;
#X connect 24 2 33 0;
#X connect 26 0 0 0;
#X connect 27 0 28 0;
#X connect 27 0 25 0;
#X connect 28 0 11 0;
#X connect 29 0 31 0;
#X connect 30 0 7 0;
#X connect 31 0 24 0;
#X connect 31 1 27 0;
#X connect 31 2 26 0;
#X connect 32 0 7 0;
#X connect 33 0 10 0;
#X connect 33 1 20 0;
#X connect 33 2 9 0;
#X connect 33 3 8 0;
#X connect 33 4 21 0;
#X connect 33 5 30 0;
#X connect 33 6 32 2;
#X restore 152 312 pd knob;
#X obj 125 183 bng 15 250 50 0 empty empty empty 17 7 0 10 -262144
-1 -1;
#X obj 14 257 mtcf-translate 0.6 0.5;
#X floatatom 205 216 5 0 0 0 - - -;
#X floatatom 142 384 5 0 0 0 - - -;
#X obj -256 84 mtcf-init;
#X msg 187 269 0;
#X obj 125 219 t b b b;
#X connect 2 0 1 0;
#X connect 4 0 8 0;
#X connect 5 0 4 0;
#X connect 6 0 7 0;
#X connect 7 0 5 0;
#X connect 7 1 4 0;
#X connect 10 0 11 0;
#X connect 11 0 12 0;
#X connect 11 1 9 0;
#X connect 12 0 9 0;
#X connect 13 0 17 0;
#X connect 14 0 20 0;
#X connect 15 0 13 0;
#X connect 16 0 13 0;
#X connect 18 0 6 0;
#X connect 18 0 10 0;
#X connect 18 0 14 0;
#X connect 19 0 13 0;
#X connect 20 0 19 0;
#X connect 20 1 15 0;
#X connect 20 2 13 0;
