#N canvas 153 229 450 300 10;
#X obj 110 36 route \$1;
#X obj 110 12 inlet;
#X obj 110 109 outlet;
#X obj 156 110 outlet;
#X obj 110 61 list prepend \$1;
#X text -34 151 MTCF mobile PD Client;
#X text -36 166 (C) Daniel Gallardo Grassot daniel.gallardo@upf.edu
;
#X text -35 183 This software (client) is released under the MIT licence
;
#X obj 110 83 route list;
#X connect 0 0 4 0;
#X connect 0 1 3 0;
#X connect 1 0 0 0;
#X connect 4 0 8 0;
#X connect 8 0 2 0;
