#N canvas 712 369 383 199 10;
#X obj 31 106 mtcf-send;
#X msg 31 78 /mtcf textsize \$1;
#X obj 31 49 inlet;
#X text 30 16 Changes the size of all text;
#X text -30 138 MTCF mobile PD Client;
#X text -32 153 (C) Daniel Gallardo Grassot daniel.gallardo@upf.edu
;
#X text -31 170 This software (client) is released under the MIT licence
;
#X connect 1 0 0 0;
#X connect 2 0 1 0;
