#N canvas 0 44 702 978 10;
#X obj 5 40 inlet;
#X obj 4 270 list trim;
#X obj 4 293 mtcf-send;
#N canvas 0 44 702 978 idGenerator 0;
#X obj 88 67 + 1;
#X obj 113 88 s idline-\$0;
#X obj 113 67 v lineIdGenerator;
#X obj 113 46 inlet;
#X connect 0 0 2 0;
#X connect 2 0 0 0;
#X connect 2 0 1 0;
#X connect 3 0 2 0;
#X restore 183 224 pd idGenerator;
#X obj 4 247 list prepend /line;
#X msg 109 224 /line \$1;
#X obj 109 201 r idline-\$0;
#X obj 87 40 inlet;
#X obj 430 40 inlet~;
#X obj 496 40 inlet;
#X text 487 20 Amplitude;
#X text 425 21 Waveform;
#X obj 496 63 list prepend ampl;
#X obj 5 63 s send-\$0;
#X obj 4 224 r send-\$0;
#X obj 87 155 s send-\$0;
#X obj 431 137 list prepend wav;
#X obj 321 86 s send-\$0;
#X obj 431 160 s send-\$0;
#X obj 496 86 s send-\$0;
#X obj 321 40 inlet;
#X text 328 23 Arc;
#X obj 321 63 list prepend arc;
#X obj 174 86 list prepend length;
#X obj 183 201 loadbang;
#X obj 87 63 route endpoints;
#X text 69 19 |enpoints p1.x p1.y p2.x p2.y(;
#X text 95 7 OR;
#X text 83 -8 Length;
#X obj 87 86 list split 2;
#X obj 121 109 list prepend p2;
#X obj 87 132 list prepend p1;
#X obj 183 245 closebang;
#X msg 183 265 rm;
#X obj 183 285 s send-\$0;
#N canvas 0 44 702 978 audio2list 0;
#X obj 17 12 inlet~;
#X obj 17 226 outlet;
#X obj 17 40 zexy/pack~;
#X obj 98 155 t b f;
#X obj 17 198 spigot 0;
#X obj 98 109 route hidden;
#X obj 98 132 == 0;
#X obj 98 86 r send-\$0;
#X msg 91 63 1;
#X obj 91 40 threshold~ 1e-10 0 -9e+10;
#X obj 181 12 block~ 512;
#X obj 91 176 && 1;
#X connect 0 0 2 0;
#X connect 0 0 9 0;
#X connect 2 0 4 0;
#X connect 3 0 11 0;
#X connect 3 1 11 1;
#X connect 4 0 1 0;
#X connect 5 0 6 0;
#X connect 6 0 3 0;
#X connect 7 0 5 0;
#X connect 8 0 4 1;
#X connect 8 0 11 0;
#X connect 9 0 8 0;
#X connect 11 0 4 1;
#X restore 431 114 pd audio2list;
#N canvas 0 44 702 978 warning 0;
#X obj 27 35 route shader;
#X obj 27 55 b;
#X obj 27 95 print mtcf-line;
#X msg 27 75 Warning: Overriding default shader.;
#X obj 27 15 r send-\$0;
#X connect 0 0 1 0;
#X connect 1 0 3 0;
#X connect 3 0 2 0;
#X connect 4 0 0 0;
#X restore 5 82 pd warning;
#X connect 0 0 13 0;
#X connect 1 0 2 0;
#X connect 4 0 1 0;
#X connect 5 0 4 1;
#X connect 6 0 5 0;
#X connect 7 0 25 0;
#X connect 8 0 35 0;
#X connect 9 0 12 0;
#X connect 12 0 19 0;
#X connect 14 0 4 0;
#X connect 16 0 18 0;
#X connect 20 0 22 0;
#X connect 22 0 17 0;
#X connect 23 0 15 0;
#X connect 24 0 3 0;
#X connect 25 0 29 0;
#X connect 25 1 23 0;
#X connect 29 0 31 0;
#X connect 29 1 30 0;
#X connect 30 0 15 0;
#X connect 31 0 15 0;
#X connect 32 0 33 0;
#X connect 33 0 34 0;
#X connect 35 0 16 0;
