#N canvas 487 341 930 625 10;
#X obj -102 13 loadbang;
#X obj -133 88 + 1;
#X obj -102 122 s idfigure-\$0;
#X obj 53 -6 inlet;
#N canvas 685 126 450 300 collide 0;
#X obj 37 59 inlet;
#X obj 156 57 inlet;
#X obj 37 93 t l l;
#X obj 64 120 unpack f;
#X obj 64 153 == 0;
#X obj 37 200 spigot;
#X obj 37 244 outlet;
#X connect 0 0 2 0;
#X connect 1 0 4 1;
#X connect 2 0 5 0;
#X connect 2 1 3 0;
#X connect 3 0 4 0;
#X connect 4 0 5 1;
#X connect 5 0 6 0;
#X restore -32 398 pd collide;
#X obj -120 434 unpack f f f f;
#N canvas 685 126 450 300 collide 0;
#X obj 37 59 inlet;
#X obj 156 57 inlet;
#X obj 37 93 t l l;
#X obj 64 120 unpack f;
#X obj 64 153 == 0;
#X obj 37 200 spigot;
#X obj 37 244 outlet;
#X connect 0 0 2 0;
#X connect 1 0 4 1;
#X connect 2 0 5 0;
#X connect 2 1 3 0;
#X connect 3 0 4 0;
#X connect 4 0 5 1;
#X connect 5 0 6 0;
#X restore 249 396 pd collide;
#N canvas 685 126 450 300 collide 0;
#X obj 37 59 inlet;
#X obj 156 57 inlet;
#X obj 37 93 t l l;
#X obj 64 120 unpack f;
#X obj 64 153 == 0;
#X obj 37 200 spigot;
#X obj 37 244 outlet;
#X connect 0 0 2 0;
#X connect 1 0 4 1;
#X connect 2 0 5 0;
#X connect 2 1 3 0;
#X connect 3 0 4 0;
#X connect 4 0 5 1;
#X connect 5 0 6 0;
#X restore 424 404 pd collide;
#X msg 353 461 1;
#X msg 401 460 0;
#X obj 25 374 r idfigure-\$0;
#X obj 306 371 r idfigure-\$0;
#X obj 481 382 r idfigure-\$0;
#X obj -93 461 pack f f f;
#X msg -93 486 coordFinger \$1 \$2 \$3;
#X obj -102 88 v polyIdGenerator;
#X obj 360 106 r idfigure-\$0;
#X obj -84 61 bng 15 250 50 0 empty empty empty 17 7 0 10 -262144 -1
-1;
#X obj 184 430 unpack f f f f f;
#X obj 208 461 pack f f f f;
#X obj 24 427 unpack f f f f f;
#X obj 48 458 pack f f f f;
#X obj 632 364 route /figure/matrix;
#N canvas 683 132 450 300 collide 0;
#X obj 37 59 inlet;
#X obj 156 57 inlet;
#X obj 37 93 t l l;
#X obj 64 120 unpack f;
#X obj 64 153 == 0;
#X obj 37 200 spigot;
#X obj 37 244 outlet;
#X connect 0 0 2 0;
#X connect 1 0 4 1;
#X connect 2 0 5 0;
#X connect 2 1 3 0;
#X connect 3 0 4 0;
#X connect 4 0 5 1;
#X connect 5 0 6 0;
#X restore 632 429 pd collide;
#X obj 689 405 r idfigure-\$0;
#X obj 632 456 list split 1;
#X msg 353 490 onFinger \$1;
#X obj 458 435 unpack f f f f f;
#X obj 482 466 pack f f f f;
#X obj 84 314 route /figure/finger /figure/addfinger /figure/rmfinger
;
#X obj 640 490 list prepend matrix;
#X obj 483 648 route list;
#X obj 448 690 outlet;
#X obj 243 183 route list;
#X obj 243 159 list prepend /figure;
#X msg 360 130 /figure \$1;
#X obj 48 486 list prepend finger move;
#X obj 208 489 list prepend finger in;
#X obj 482 491 list prepend finger out;
#X obj 243 208 mtcf-send;
#X obj 84 290 mtcf-receive;
#X text -121 656 MTCF mobile PD Client;
#X text -123 671 (C) Daniel Gallardo Grassot daniel.gallardo@upf.edu
;
#X text -122 688 This software (client) is released under the MIT licence
;
#X text -136 -20 polygon graphic object. See [polygon2-help] for the
options.;
#N canvas 364 562 467 368 track 0;
#X obj 166 70 t a b;
#X obj 109 137 list;
#X obj 109 169 t b a;
#X obj 124 247 spigot;
#X msg 188 209 1;
#X msg 157 209 0;
#X obj 109 37 inlet;
#X obj 166 36 inlet;
#X obj 124 310 outlet;
#X obj 157 139 loadbang;
#X connect 0 0 1 1;
#X connect 0 1 4 0;
#X connect 1 0 2 0;
#X connect 2 0 5 0;
#X connect 2 1 3 0;
#X connect 3 0 8 0;
#X connect 4 0 3 1;
#X connect 5 0 3 1;
#X connect 6 0 1 0;
#X connect 7 0 0 0;
#X connect 9 0 5 0;
#X restore 112 71 pd track;
#X obj 157 18 route transform;
#X obj -17 23 r update_transform;
#X obj 157 45 list prepend transform;
#X obj 208 86 list append n;
#X connect 0 0 15 0;
#X connect 1 0 15 0;
#X connect 3 0 46 0;
#X connect 4 0 5 0;
#X connect 4 0 20 0;
#X connect 5 1 13 0;
#X connect 5 2 13 1;
#X connect 5 3 13 2;
#X connect 6 0 8 0;
#X connect 6 0 18 0;
#X connect 7 0 9 0;
#X connect 7 0 27 0;
#X connect 8 0 26 0;
#X connect 9 0 26 0;
#X connect 10 0 4 1;
#X connect 11 0 6 1;
#X connect 12 0 7 1;
#X connect 13 0 14 0;
#X connect 14 0 32 0;
#X connect 15 0 1 0;
#X connect 15 0 2 0;
#X connect 16 0 35 0;
#X connect 17 0 15 0;
#X connect 18 1 19 0;
#X connect 18 2 19 1;
#X connect 18 3 19 2;
#X connect 18 4 19 3;
#X connect 19 0 37 0;
#X connect 20 1 21 0;
#X connect 20 2 21 1;
#X connect 20 3 21 2;
#X connect 20 4 21 3;
#X connect 21 0 36 0;
#X connect 22 0 23 0;
#X connect 23 0 25 0;
#X connect 24 0 23 1;
#X connect 25 1 30 0;
#X connect 26 0 32 0;
#X connect 27 1 28 0;
#X connect 27 2 28 1;
#X connect 27 3 28 2;
#X connect 27 4 28 3;
#X connect 28 0 38 0;
#X connect 29 0 4 0;
#X connect 29 1 6 0;
#X connect 29 2 7 0;
#X connect 29 3 22 0;
#X connect 30 0 31 0;
#X connect 31 0 32 0;
#X connect 33 0 39 0;
#X connect 34 0 33 0;
#X connect 35 0 34 1;
#X connect 36 0 31 0;
#X connect 37 0 31 0;
#X connect 38 0 31 0;
#X connect 40 0 29 0;
#X connect 45 0 34 0;
#X connect 46 0 48 0;
#X connect 46 1 34 0;
#X connect 47 0 45 0;
#X connect 48 0 49 0;
#X connect 49 0 45 1;
