#N canvas 0 44 702 978 10;
#X obj 60 83 inlet~;
#X obj 108 83 inlet;
#X obj 108 135 t b f;
#X obj 60 269 outlet~;
#X obj 60 233 *~;
#X obj 211 83 mtcf-object \$1;
#X obj 302 83 mtcf-object \$2;
#X text 241 12 Musical Tabletop Coding Framework PD Client;
#X text 240 27 (C) Carles F. Julia carles.fernandez@upf.edu;
#X text 241 42 This software is released under the MIT license;
#X obj 507 133 f \$1;
#X text 472 133 f_id;
#X obj 460 105 bng 15 250 50 0 empty empty empty 17 7 0 10 -262144
-1 -1;
#X obj 556 120 bng 15 250 50 0 empty empty empty 17 7 0 10 -262144
-1 -1;
#X obj 556 188 bng 15 250 50 0 empty empty empty 17 7 0 10 -262144
-1 -1;
#X obj 460 173 bng 15 250 50 0 empty empty empty 17 7 0 10 -262144
-1 -1;
#X text 491 97 Arguments;
#X text 472 153 f_id;
#X obj 507 153 f \$2;
#X obj 408 85 inlet;
#X text 395 68 Amplitude;
#X obj 287 312 mtcf-line;
#X msg 299 164 endpoints \$1 \$2 \$3 \$4;
#X obj 299 144 pack f f f f;
#X obj 318 108 t b f;
#X obj 211 135 &&;
#X obj 218 111 t b f;
#X obj 147 268 mtcf-visibility;
#X obj 147 218 loadbang;
#X msg 147 242 0;
#X obj 108 218 == 0;
#X obj 108 183 && 1;
#X obj 108 106 route float;
#X obj 287 256 mtcf-visibility;
#X obj 330 213 loadbang;
#X msg 330 234 99;
#X text 356 235 <-Draw behind the objects;
#X connect 0 0 4 0;
#X connect 0 0 21 3;
#X connect 1 0 32 0;
#X connect 2 0 31 0;
#X connect 2 1 31 1;
#X connect 4 0 3 0;
#X connect 5 0 25 0;
#X connect 5 1 23 0;
#X connect 5 2 23 1;
#X connect 6 0 26 0;
#X connect 6 1 24 0;
#X connect 6 2 23 3;
#X connect 12 0 15 0;
#X connect 12 0 13 0;
#X connect 13 0 14 0;
#X connect 15 0 14 0;
#X connect 19 0 21 4;
#X connect 22 0 21 1;
#X connect 23 0 22 0;
#X connect 24 0 23 0;
#X connect 24 1 23 2;
#X connect 25 0 31 0;
#X connect 26 0 25 0;
#X connect 26 1 25 1;
#X connect 27 0 21 0;
#X connect 28 0 29 0;
#X connect 29 0 27 0;
#X connect 30 0 27 0;
#X connect 31 0 4 1;
#X connect 31 0 30 0;
#X connect 32 0 2 0;
#X connect 32 1 21 0;
#X connect 33 0 21 0;
#X connect 34 0 35 0;
#X connect 35 0 33 1;
