#N canvas 0 44 702 978 10;
#X obj 63 -5 inlet~;
#X obj 126 -5 inlet;
#X obj 164 -5 inlet;
#X obj 201 -5 inlet;
#X obj 239 -5 inlet;
#X obj -16 -5 inlet;
#X obj 294 -5 inlet;
#X obj 114 121 mtcf-line;
#X obj -16 66 mtcf-visibility;
#X obj -16 44 == 0;
#X msg 126 96 endpoints \$1 \$2 \$3 \$4;
#X obj 126 76 pack f f f f;
#X obj 176 37 t b f;
#X obj 199 51 t b f;
#X obj 163 18 t b f;
#X obj -16 21 route float;
#X connect 0 0 7 3;
#X connect 1 0 11 0;
#X connect 2 0 14 0;
#X connect 3 0 12 0;
#X connect 4 0 13 0;
#X connect 5 0 15 0;
#X connect 6 0 7 4;
#X connect 8 0 7 0;
#X connect 9 0 8 0;
#X connect 10 0 7 1;
#X connect 11 0 10 0;
#X connect 12 0 11 0;
#X connect 12 1 11 2;
#X connect 13 0 11 0;
#X connect 13 1 11 3;
#X connect 14 0 11 0;
#X connect 14 1 11 1;
#X connect 15 0 9 0;
#X connect 15 1 7 0;
