#N canvas 168 158 1110 788 10;
#X obj 17 83 inlet;
#X obj 44 243 unpack f f f f f f f f f f f f f f f f;
#X obj 35 116 loadbang;
#X obj 315 218 float \$1;
#X obj 506 324 float \$2;
#X obj 506 495 outlet;
#X obj 315 83 inlet;
#X obj 524 83 inlet;
#X obj 524 106 t b f;
#X obj 44 408 *;
#X obj 89 408 *;
#X obj 59 440 -;
#X obj 160 471 /;
#X obj 506 471 /;
#X obj 17 136 mtcf-matrix;
#X text 0 632 MTCF mobile PD Client;
#X text -2 647 (C) Daniel Gallardo Grassot daniel.gallardo@upf.edu
;
#X text -1 664 This software (client) is released under the MIT licence
;
#X text -6 -62 Multiplies a point by the inverse of a Matrix.;
#X text -7 -46 Inlets: matrix (16 values list) \, X \, Y;
#X text -7 -30 Outlets: Xresult \, Yresult;
#X obj 160 495 outlet;
#X obj 17 160 t b a;
#X obj 315 243 t f b f;
#X obj 160 437 expr ( $f3 * ( $f1 - $f4 ) ) + ( $f2 * ( $f5 - $f6 )
);
#X obj 506 437 expr $f4 * ( ($f2 * ( $f1 - $f6 )) + ($f3 * ( $f5 -
$f7 )) );
#X connect 0 0 14 0;
#X connect 1 0 9 0;
#X connect 1 0 25 1;
#X connect 1 1 10 0;
#X connect 1 1 25 2;
#X connect 1 4 10 1;
#X connect 1 4 24 1;
#X connect 1 5 9 1;
#X connect 1 5 24 2;
#X connect 1 10 25 3;
#X connect 1 12 24 3;
#X connect 1 12 25 4;
#X connect 1 13 24 4;
#X connect 1 13 25 5;
#X connect 2 0 14 0;
#X connect 3 0 23 0;
#X connect 4 0 25 0;
#X connect 4 0 24 5;
#X connect 6 0 3 0;
#X connect 7 0 8 0;
#X connect 8 0 3 0;
#X connect 8 1 4 1;
#X connect 9 0 11 0;
#X connect 10 0 11 1;
#X connect 11 0 13 1;
#X connect 11 0 12 1;
#X connect 12 0 21 0;
#X connect 13 0 5 0;
#X connect 14 0 22 0;
#X connect 22 0 3 0;
#X connect 22 1 1 0;
#X connect 23 0 24 0;
#X connect 23 1 4 0;
#X connect 23 2 25 6;
#X connect 24 0 12 0;
#X connect 25 0 13 0;
