#N canvas 607 565 264 230 10;
#X obj 52 31 inlet;
#X obj 52 192 outlet;
#X obj 52 169 list trim;
#X obj 122 31 inlet;
#X obj 52 146 list prepend shader;
#X obj 122 54 list prepend symbol;
#X obj 122 77 list trim;
#X obj 71 100 symbol \$1;
#X obj 52 54 sel 0 1;
#X msg 71 123 shaders/\$1;
#X connect 0 0 8 0;
#X connect 2 0 1 0;
#X connect 3 0 5 0;
#X connect 4 0 2 0;
#X connect 5 0 6 0;
#X connect 6 0 7 1;
#X connect 7 0 9 0;
#X connect 8 0 4 0;
#X connect 8 1 7 0;
#X connect 9 0 4 0;
