#N canvas 0 44 702 978 10;
#X obj 27 -44 inlet;
#X obj 143 -44 inlet;
#X obj 27 -2 route bang;
#X obj 39 76 float \$1;
#X obj 98 76 float \$2;
#X obj 18 186 list;
#X obj 18 244 outlet;
#X text 13 276 MTCF mobile PD Client;
#X text 11 291 (C) Daniel Gallardo Grassot daniel.gallardo@upf.edu
;
#X text 12 308 This software (client) is released under the MIT licence
;
#X text 8 -88 Sends a circle path to a [polygon2] object.;
#X obj 27 30 t b b b b;
#X obj 203 -44 inlet;
#X obj 158 76 float \$3;
#X text 8 -74 Inlets: radius \, vertex_resolution \, star radius;
#X obj 39 154 list prepend circle;
#X obj 18 215 list trim;
#X obj 39 125 pack f f f;
#X connect 0 0 2 0;
#X connect 1 0 4 1;
#X connect 2 0 11 0;
#X connect 2 1 3 1;
#X connect 3 0 17 0;
#X connect 4 0 17 1;
#X connect 5 0 16 0;
#X connect 11 0 5 0;
#X connect 11 1 3 0;
#X connect 11 2 4 0;
#X connect 12 0 13 1;
#X connect 13 0 17 2;
#X connect 15 0 5 1;
#X connect 16 0 6 0;
#X connect 17 0 15 0;
