#N canvas 0 44 702 978 10;
#X obj -8 -399 mtcf-object \$1;
#X obj 83 -399 mtcf-object \$2;
#X obj -8 -135 outlet;
#X obj -8 -159 &&;
#X obj 11 -310 t b f;
#X obj 94 -155 expr sqrt($f1*$f1 + $f2*$f2);
#X obj 245 -334 -;
#X obj 94 -338 -;
#X obj 233 -357 t b f;
#X obj 82 -361 t b f;
#X obj 94 -133 outlet;
#X obj 292 -133 outlet;
#X obj 94 -313 t f b f;
#X obj 245 -307 t f f;
#X obj 292 -240 atan2;
#X obj 292 -264 f;
#X obj 292 -156 +;
#X obj 292 -220 t f f;
#X obj 319 -200 < 0;
#X obj 319 -180 expr ($f1 * 2 - 1)*3.14159;
#X text -13 -119 Presence;
#X text 89 -116 Distance;
#X text 292 -115 Angle;
#X obj -64 -399 inlet;
#X text -81 -417 Toggle draw;
#X obj -64 -159 t b f;
#X obj -64 -135 && 1;
#N canvas 0 44 702 978 connectLine 0;
#X obj -15 -63 inlet;
#X obj 67 -63 inlet;
#X obj 105 -63 inlet;
#X obj 143 -63 inlet;
#X obj 181 -63 inlet;
#X obj -15 247 mtcf-line;
#X obj -15 23 mtcf-visibility;
#X obj 67 91 pack f f f f;
#X obj 113 71 t b f;
#X obj 67 112 t b l;
#X obj -6 221 mtcf-rgbcolor 255 255 255;
#X obj -15 -41 == 0;
#X msg 94 133 endpoints \$1 \$2 \$3 \$4;
#X msg 67 175 0 \, 255 100;
#X obj 67 198 line 0 10;
#X obj 181 48 change;
#X obj 143 48 change;
#X obj 105 48 change;
#X obj 67 48 change;
#X obj 149 71 t b f;
#X obj 77 71 t b f;
#X obj 28 -20 loadbang;
#X msg 28 2 99;
#X connect 0 0 11 0;
#X connect 1 0 18 0;
#X connect 2 0 17 0;
#X connect 3 0 16 0;
#X connect 4 0 15 0;
#X connect 6 0 5 0;
#X connect 7 0 9 0;
#X connect 8 0 7 0;
#X connect 8 1 7 2;
#X connect 9 0 13 0;
#X connect 9 1 12 0;
#X connect 10 0 5 0;
#X connect 11 0 6 0;
#X connect 12 0 5 1;
#X connect 13 0 14 0;
#X connect 14 0 10 2;
#X connect 14 0 10 1;
#X connect 15 0 19 0;
#X connect 16 0 8 0;
#X connect 17 0 20 0;
#X connect 18 0 7 0;
#X connect 19 0 7 0;
#X connect 19 1 7 3;
#X connect 20 0 7 0;
#X connect 20 1 7 1;
#X connect 21 0 22 0;
#X connect 22 0 6 1;
#X restore -64 -89 pd connectLine;
#X connect 0 0 3 0;
#X connect 0 1 7 0;
#X connect 0 1 27 1;
#X connect 0 2 6 0;
#X connect 0 2 27 2;
#X connect 1 0 4 0;
#X connect 1 1 9 0;
#X connect 1 1 27 3;
#X connect 1 2 8 0;
#X connect 1 2 27 4;
#X connect 3 0 2 0;
#X connect 3 0 26 0;
#X connect 4 0 3 0;
#X connect 4 1 3 1;
#X connect 5 0 10 0;
#X connect 6 0 13 0;
#X connect 7 0 12 0;
#X connect 8 0 6 0;
#X connect 8 1 6 1;
#X connect 9 0 7 0;
#X connect 9 1 7 1;
#X connect 12 0 5 0;
#X connect 12 1 15 0;
#X connect 12 2 14 1;
#X connect 13 0 5 1;
#X connect 13 1 15 0;
#X connect 14 0 17 0;
#X connect 15 0 14 0;
#X connect 16 0 11 0;
#X connect 17 0 16 0;
#X connect 17 1 18 0;
#X connect 18 0 19 0;
#X connect 19 0 16 1;
#X connect 23 0 25 0;
#X connect 25 0 26 0;
#X connect 25 1 26 1;
#X connect 26 0 27 0;
