#N canvas 521 275 375 151 10;
#X obj 15 28 inlet;
#X obj 72 74 s basicTangibleTabletop1234messageBus;
#X text 15 90 MTCF mobile PD Client;
#X text 13 105 (C) Daniel Gallardo Grassot daniel.gallardo@upf.edu
;
#X text 14 122 This software (client) is released under the MIT licence
;
#X text 13 4 Sends data to the MTF by using OSC or libPD messages;
#X obj 15 50 route bang;
#X connect 0 0 6 0;
#X connect 6 1 1 0;
