#N canvas 300 347 838 621 10;
#X obj 273 36 loadbang;
#X msg 273 57 \; pd dsp 1;
#X text 546 14 Musical Tabletop Coding Framework PD Client;
#X text 545 29 (C) Carles F. Julia carles.fernandez@upf.edu;
#X text 546 44 This software is released under the MIT license;
#X obj 13 7 mtcf-comm;
#X obj 273 105 bng 15 250 50 0 empty empty empty 17 7 0 10 -262144
-1 -1;
#X obj 273 129 mtcf-reset;
#X msg 270 7 ip localhost;
#X obj 550 528 mtcf-graphics-help;
#X obj 550 550 mtcf-fingers-help;
#X obj 550 572 mtcf-composedwidgets-help;
#X obj 7 192 cnv 15 150 300 empty empty transform 20 12 0 14 -204800
-66577 0;
#X obj 165 192 cnv 15 200 300 empty empty shape 20 12 0 14 -261682
-66577 0;
#X obj 372 194 cnv 15 150 300 empty empty empty 20 12 0 14 -233017
-66577 0;
#X obj 141 524 mtcf-polygon;
#X msg 193 280 clearvertex;
#X msg 166 303 addvertex -0.02 0 0.02 0 0 -0.03;
#X obj 12 278 mtcf-translate 0.1 0.1;
#X obj 12 474 nop;
#X obj 166 472 nop;
#X text 44 169 comment;
#N canvas 993 261 728 253 shapes 0;
#X obj 48 179 mtcf-polygon;
#X obj 77 92 mtcf-init;
#X obj 58 93 bng 15 250 50 0 empty empty empty 17 7 0 10 -262144 -1
-1;
#X obj 77 125 mtcf-rectangle 0.1 0.05;
#N canvas 765 386 450 407 showcase 0;
#N canvas 1321 527 450 300 showrotate 0;
#X obj 39 121 mtcf-rotate 0;
#X obj 40 176 outlet;
#X obj 38 66 inlet;
#X obj 141 92 r rotateallthethings;
#X connect 0 0 1 0;
#X connect 2 0 0 0;
#X connect 3 0 0 1;
#X restore 47 171 pd showrotate;
#X obj 47 291 mtcf-text;
#X msg 54 261 write mtcf-rectangle;
#X obj 29 103 mtcf-translate 0.2 0.2;
#X obj 81 61 mtcf-init;
#X obj 42 54 bng 15 250 50 0 empty empty empty 17 7 0 10 -262144 -1
-1;
#X obj 42 236 mtcf-translate -0.08 0.1;
#X obj 65 199 outlet;
#X connect 0 0 7 0;
#X connect 2 0 1 0;
#X connect 3 0 0 0;
#X connect 3 0 6 0;
#X connect 4 0 3 0;
#X connect 4 0 2 0;
#X connect 5 0 3 0;
#X connect 6 0 1 0;
#X restore 48 50 pd showcase;
#X obj 235 181 mtcf-polygon;
#X obj 264 94 mtcf-init;
#X obj 245 95 bng 15 250 50 0 empty empty empty 17 7 0 10 -262144 -1
-1;
#N canvas 1165 356 450 407 showcase 0;
#N canvas 1321 527 450 300 showrotate 0;
#X obj 39 121 mtcf-rotate 0;
#X obj 40 176 outlet;
#X obj 38 66 inlet;
#X obj 121 23 r rotateallthethings;
#X connect 0 0 1 0;
#X connect 2 0 0 0;
#X connect 3 0 0 1;
#X restore 47 171 pd showrotate;
#X obj 47 291 mtcf-text;
#X obj 81 61 mtcf-init;
#X obj 42 54 bng 15 250 50 0 empty empty empty 17 7 0 10 -262144 -1
-1;
#X obj 65 199 outlet;
#X obj 29 103 mtcf-translate 0.4 0.2;
#X msg 54 261 write mtcf-square;
#X obj 42 236 mtcf-translate -0.07 0.1;
#X connect 0 0 4 0;
#X connect 2 0 5 0;
#X connect 2 0 6 0;
#X connect 3 0 5 0;
#X connect 5 0 0 0;
#X connect 5 0 7 0;
#X connect 6 0 1 0;
#X connect 7 0 1 0;
#X restore 235 52 pd showcase;
#X obj 264 127 mtcf-square 0.1;
#X obj 394 181 mtcf-polygon;
#X obj 423 94 mtcf-init;
#X obj 404 95 bng 15 250 50 0 empty empty empty 17 7 0 10 -262144 -1
-1;
#N canvas 800 374 450 407 showcase 0;
#N canvas 1321 527 450 300 showrotate 0;
#X obj 39 121 mtcf-rotate 0;
#X obj 40 176 outlet;
#X obj 38 66 inlet;
#X obj 161 112 r rotateallthethings;
#X connect 0 0 1 0;
#X connect 2 0 0 0;
#X connect 3 0 0 1;
#X restore 47 171 pd showrotate;
#X obj 47 291 mtcf-text;
#X obj 81 61 mtcf-init;
#X obj 42 54 bng 15 250 50 0 empty empty empty 17 7 0 10 -262144 -1
-1;
#X obj 65 199 outlet;
#X obj 42 236 mtcf-translate -0.07 0.1;
#X obj 29 103 mtcf-translate 0.6 0.2;
#X msg 54 261 write mtcf-circle;
#X connect 0 0 4 0;
#X connect 2 0 7 0;
#X connect 2 0 6 0;
#X connect 3 0 6 0;
#X connect 5 0 1 0;
#X connect 6 0 0 0;
#X connect 6 0 5 0;
#X connect 7 0 1 0;
#X restore 394 52 pd showcase;
#X obj 423 127 mtcf-circle 0.04 10;
#X obj 555 177 mtcf-polygon;
#X obj 584 90 mtcf-init;
#X obj 565 91 bng 15 250 50 0 empty empty empty 17 7 0 10 -262144 -1
-1;
#N canvas 888 367 450 407 showcase 0;
#N canvas 1321 527 450 300 showrotate 0;
#X obj 39 121 mtcf-rotate 0;
#X obj 40 176 outlet;
#X obj 38 66 inlet;
#X obj 171 122 r rotateallthethings;
#X connect 0 0 1 0;
#X connect 2 0 0 0;
#X connect 3 0 0 1;
#X restore 47 171 pd showrotate;
#X obj 47 291 mtcf-text;
#X obj 81 61 mtcf-init;
#X obj 42 54 bng 15 250 50 0 empty empty empty 17 7 0 10 -262144 -1
-1;
#X obj 65 199 outlet;
#X msg 54 261 write other;
#X obj 29 103 mtcf-translate 0.8 0.2;
#X obj 42 236 mtcf-translate -0.02 0.1;
#X connect 0 0 4 0;
#X connect 2 0 5 0;
#X connect 2 0 6 0;
#X connect 3 0 6 0;
#X connect 5 0 1 0;
#X connect 6 0 0 0;
#X connect 6 0 7 0;
#X connect 7 0 1 0;
#X restore 555 48 pd showcase;
#N canvas 1253 317 450 300 other 0;
#X obj 37 35 inlet;
#X obj 96 236 outlet;
#X msg 96 92 clearvertex;
#X obj 69 66 t b b;
#X msg 111 137 addvertex -0.05 0 0.05 0 0 0.07;
#X connect 0 0 3 0;
#X connect 2 0 1 0;
#X connect 3 0 4 0;
#X connect 3 1 2 0;
#X connect 4 0 1 0;
#X restore 584 123 pd other;
#N canvas 1061 393 450 436 label 0;
#X obj 55 351 mtcf-text;
#X obj 91 71 mtcf-init;
#X obj 52 64 bng 15 250 50 0 empty empty empty 17 7 0 10 -262144 -1
-1;
#X msg 64 271 write shapes;
#X obj 52 246 mtcf-translate 0.3 0.1;
#X obj 51 290 mtcf-scale 1.5 1.5;
#X obj 195 277 mtcf-rgbcolor 255 0 0;
#X connect 1 0 3 0;
#X connect 1 0 4 0;
#X connect 1 0 6 0;
#X connect 2 0 4 0;
#X connect 2 0 6 0;
#X connect 3 0 0 0;
#X connect 4 0 5 0;
#X connect 5 0 0 0;
#X connect 6 0 0 0;
#X restore 50 13 pd label;
#N canvas 1197 575 450 300 rotation 0;
#X obj 210 95 metro 20;
#X obj 210 61 loadbang;
#X obj 185 60 bng 15 250 50 0 empty empty empty 17 7 0 10 -262144 -1
-1;
#X obj 175 169 s rotateallthethings;
#X obj 209 117 counter 360;
#X connect 0 0 4 0;
#X connect 1 0 0 0;
#X connect 2 0 0 0;
#X connect 4 0 3 0;
#X restore 109 12 pd rotation;
#X connect 1 0 3 0;
#X connect 2 0 3 0;
#X connect 3 0 0 0;
#X connect 4 0 0 0;
#X connect 6 0 9 0;
#X connect 7 0 9 0;
#X connect 8 0 5 0;
#X connect 9 0 5 0;
#X connect 11 0 14 0;
#X connect 12 0 14 0;
#X connect 13 0 10 0;
#X connect 14 0 10 0;
#X connect 16 0 19 0;
#X connect 17 0 19 0;
#X connect 18 0 15 0;
#X connect 19 0 15 0;
#X restore 396 209 pd shapes;
#N canvas 731 665 923 300 colors 0;
#X obj 47 213 mtcf-polygon;
#X obj 76 126 mtcf-init;
#X obj 57 127 bng 15 250 50 0 empty empty empty 17 7 0 10 -262144 -1
-1;
#N canvas 765 386 450 407 showcase 0;
#N canvas 1321 527 450 300 showrotate 0;
#X obj 39 121 mtcf-rotate 0;
#X obj 40 176 outlet;
#X obj 38 66 inlet;
#X obj 131 82 r rotateallthethings;
#X connect 0 0 1 0;
#X connect 2 0 0 0;
#X connect 3 0 0 1;
#X restore 47 171 pd showrotate;
#X obj 47 291 mtcf-text;
#X obj 81 61 mtcf-init;
#X obj 42 54 bng 15 250 50 0 empty empty empty 17 7 0 10 -262144 -1
-1;
#X obj 42 236 mtcf-translate -0.08 0.1;
#X obj 65 199 outlet;
#X obj 139 172 mtcf-square 0.1;
#X obj 29 103 mtcf-translate 0.2 0.5;
#X msg 54 261 write mtcf-rgbcolor;
#X connect 0 0 5 0;
#X connect 2 0 8 0;
#X connect 2 0 6 0;
#X connect 2 0 7 0;
#X connect 3 0 6 0;
#X connect 3 0 7 0;
#X connect 4 0 1 0;
#X connect 6 0 5 0;
#X connect 7 0 0 0;
#X connect 7 0 4 0;
#X connect 8 0 1 0;
#X restore 47 84 pd showcase;
#N canvas 1061 393 450 436 label 0;
#X obj 55 351 mtcf-text;
#X obj 91 71 mtcf-init;
#X obj 52 64 bng 15 250 50 0 empty empty empty 17 7 0 10 -262144 -1
-1;
#X obj 51 290 mtcf-scale 1.5 1.5;
#X obj 195 277 mtcf-rgbcolor 255 0 0;
#X msg 64 271 write colors;
#X obj 52 246 mtcf-translate 0.3 0.4;
#X connect 1 0 5 0;
#X connect 1 0 4 0;
#X connect 1 0 6 0;
#X connect 2 0 4 0;
#X connect 2 0 6 0;
#X connect 3 0 0 0;
#X connect 4 0 0 0;
#X connect 5 0 0 0;
#X connect 6 0 3 0;
#X restore 49 47 pd label;
#X obj 76 159 mtcf-rgbcolor 255 0 255;
#X obj 227 214 mtcf-polygon;
#X obj 256 127 mtcf-init;
#X obj 237 128 bng 15 250 50 0 empty empty empty 17 7 0 10 -262144
-1 -1;
#N canvas 765 386 450 407 showcase 0;
#N canvas 1321 527 450 300 showrotate 0;
#X obj 39 121 mtcf-rotate 0;
#X obj 40 176 outlet;
#X obj 38 66 inlet;
#X obj 121 72 r rotateallthethings;
#X connect 0 0 1 0;
#X connect 2 0 0 0;
#X connect 3 0 0 1;
#X restore 47 171 pd showrotate;
#X obj 47 291 mtcf-text;
#X obj 81 61 mtcf-init;
#X obj 42 54 bng 15 250 50 0 empty empty empty 17 7 0 10 -262144 -1
-1;
#X obj 42 236 mtcf-translate -0.08 0.1;
#X obj 65 199 outlet;
#X obj 139 172 mtcf-square 0.1;
#X obj 29 103 mtcf-translate 0.4 0.5;
#X msg 54 261 write mtcf-color;
#X connect 0 0 5 0;
#X connect 2 0 8 0;
#X connect 2 0 6 0;
#X connect 2 0 7 0;
#X connect 3 0 6 0;
#X connect 3 0 7 0;
#X connect 4 0 1 0;
#X connect 6 0 5 0;
#X connect 7 0 0 0;
#X connect 7 0 4 0;
#X connect 8 0 1 0;
#X restore 227 85 pd showcase;
#X obj 256 160 mtcf-color 255 0 255 100;
#X obj 449 217 mtcf-polygon;
#X obj 478 130 mtcf-init;
#X obj 459 131 bng 15 250 50 0 empty empty empty 17 7 0 10 -262144
-1 -1;
#N canvas 765 386 450 407 showcase 0;
#N canvas 1321 527 450 300 showrotate 0;
#X obj 39 121 mtcf-rotate 0;
#X obj 40 176 outlet;
#X obj 38 66 inlet;
#X obj 121 72 r rotateallthethings;
#X connect 0 0 1 0;
#X connect 2 0 0 0;
#X connect 3 0 0 1;
#X restore 47 171 pd showrotate;
#X obj 47 291 mtcf-text;
#X obj 81 61 mtcf-init;
#X obj 42 54 bng 15 250 50 0 empty empty empty 17 7 0 10 -262144 -1
-1;
#X obj 42 236 mtcf-translate -0.08 0.1;
#X obj 65 199 outlet;
#X obj 139 172 mtcf-square 0.1;
#X obj 29 103 mtcf-translate 0.6 0.5;
#X msg 54 261 write mtcf-stroke;
#X connect 0 0 5 0;
#X connect 2 0 8 0;
#X connect 2 0 6 0;
#X connect 2 0 7 0;
#X connect 3 0 6 0;
#X connect 3 0 7 0;
#X connect 4 0 1 0;
#X connect 6 0 5 0;
#X connect 7 0 0 0;
#X connect 7 0 4 0;
#X connect 8 0 1 0;
#X restore 449 88 pd showcase;
#X obj 499 164 mtcf-rgbcolor 255 0 0;
#X msg 635 164 3;
#X msg 461 164 1;
#X obj 461 187 mtcf-stroke;
#X obj 697 217 mtcf-polygon;
#N canvas 765 386 450 407 showcase 0;
#N canvas 1321 527 450 300 showrotate 0;
#X obj 39 121 mtcf-rotate 0;
#X obj 40 176 outlet;
#X obj 38 66 inlet;
#X obj 121 72 r rotateallthethings;
#X connect 0 0 1 0;
#X connect 2 0 0 0;
#X connect 3 0 0 1;
#X restore 47 171 pd showrotate;
#X obj 47 291 mtcf-text;
#X obj 81 61 mtcf-init;
#X obj 42 54 bng 15 250 50 0 empty empty empty 17 7 0 10 -262144 -1
-1;
#X obj 42 236 mtcf-translate -0.08 0.1;
#X obj 65 199 outlet;
#X obj 139 172 mtcf-square 0.1;
#X obj 29 103 mtcf-translate 0.8 0.5;
#X msg 54 261 write mtcf-hide;
#X connect 0 0 5 0;
#X connect 2 0 8 0;
#X connect 2 0 6 0;
#X connect 2 0 7 0;
#X connect 3 0 6 0;
#X connect 3 0 7 0;
#X connect 4 0 1 0;
#X connect 6 0 5 0;
#X connect 7 0 0 0;
#X connect 7 0 4 0;
#X connect 8 0 1 0;
#X restore 697 88 pd showcase;
#X obj 709 187 mtcf-hide;
#X obj 713 118 loadbang;
#X obj 772 119 bng 15 250 50 0 empty empty empty 17 7 0 10 -262144
-1 -1;
#X obj 713 166 tgl 15 0 empty empty empty 17 7 0 10 -262144 -1 -1 0
1;
#X obj 713 145 metro 1000;
#X obj 131 49 print C;
#X connect 1 0 5 0;
#X connect 2 0 5 0;
#X connect 3 0 0 0;
#X connect 5 0 0 0;
#X connect 7 0 10 0;
#X connect 8 0 10 0;
#X connect 9 0 6 0;
#X connect 10 0 6 0;
#X connect 12 0 15 0;
#X connect 12 0 16 0;
#X connect 12 0 17 0;
#X connect 13 0 15 0;
#X connect 13 0 16 0;
#X connect 13 0 17 0;
#X connect 14 0 11 0;
#X connect 15 0 18 1;
#X connect 16 0 18 2;
#X connect 17 0 18 0;
#X connect 18 0 11 0;
#X connect 20 0 19 0;
#X connect 21 0 19 0;
#X connect 22 0 25 0;
#X connect 23 0 25 0;
#X connect 24 0 21 0;
#X connect 25 0 24 0;
#X restore 397 244 pd colors;
#X msg 14 247 transform;
#N canvas 1168 63 601 326 transformations 0;
#N canvas 1061 393 450 436 label 0;
#X obj 55 351 mtcf-text;
#X obj 91 71 mtcf-init;
#X obj 52 64 bng 15 250 50 0 empty empty empty 17 7 0 10 -262144 -1
-1;
#X obj 51 290 mtcf-scale 1.5 1.5;
#X obj 195 277 mtcf-rgbcolor 255 0 0;
#X obj 52 246 mtcf-translate 0.3 0.7;
#X msg 63 271 write transformations;
#X connect 1 0 6 0;
#X connect 1 0 4 0;
#X connect 1 0 5 0;
#X connect 2 0 4 0;
#X connect 2 0 5 0;
#X connect 3 0 0 0;
#X connect 4 0 0 0;
#X connect 5 0 3 0;
#X connect 6 0 0 0;
#X restore 25 18 pd label;
#X obj 32 201 mtcf-polygon;
#N canvas 882 550 450 407 showcase 0;
#X obj 47 291 mtcf-text;
#X obj 81 61 mtcf-init;
#X obj 42 54 bng 15 250 50 0 empty empty empty 17 7 0 10 -262144 -1
-1;
#X obj 42 236 mtcf-translate -0.08 0.1;
#X obj 106 202 outlet;
#X obj 139 172 mtcf-square 0.1;
#X msg 54 261 write mtcf-translate;
#X obj 35 134 mtcf-translate 0.2 0.8;
#X msg 38 106 transform;
#X obj 48 203 outlet;
#X connect 1 0 6 0;
#X connect 1 0 5 0;
#X connect 1 0 8 0;
#X connect 2 0 5 0;
#X connect 2 0 8 0;
#X connect 3 0 0 0;
#X connect 5 0 9 0;
#X connect 6 0 0 0;
#X connect 7 0 3 0;
#X connect 7 0 4 0;
#X connect 8 0 7 0;
#X restore 25 111 pd showcase;
#N canvas 1156 378 450 300 show 0;
#X obj 104 119 r oscallthethings;
#X obj 104 194 outlet;
#X obj 104 155 * 0.05;
#X connect 0 0 2 0;
#X connect 2 0 1 0;
#X restore 90 139 pd show;
#X obj 38 169 mtcf-translate 0 0;
#N canvas 1216 492 450 300 osc 0;
#X obj 120 91 metro 20;
#X obj 152 45 loadbang;
#X obj 214 45 bng 15 250 50 0 empty empty empty 17 7 0 10 -262144 -1
-1;
#X obj 116 116 snapshot~;
#X obj 112 149 s oscallthethings;
#X obj 82 45 osc~ 1;
#X connect 0 0 3 0;
#X connect 1 0 0 0;
#X connect 2 0 0 0;
#X connect 3 0 4 0;
#X connect 5 0 3 0;
#X restore 85 20 pd osc;
#X obj 166 203 mtcf-polygon;
#N canvas 765 386 450 407 showcase 0;
#X obj 47 291 mtcf-text;
#X obj 81 61 mtcf-init;
#X obj 42 54 bng 15 250 50 0 empty empty empty 17 7 0 10 -262144 -1
-1;
#X obj 42 236 mtcf-translate -0.08 0.1;
#X obj 73 201 outlet;
#X msg 54 261 write mtcf-rotate;
#X obj 29 103 mtcf-translate 0.4 0.8;
#X obj 139 172 mtcf-square 0.1;
#X obj 137 200 outlet;
#X connect 1 0 5 0;
#X connect 1 0 6 0;
#X connect 1 0 7 0;
#X connect 2 0 6 0;
#X connect 2 0 7 0;
#X connect 3 0 0 0;
#X connect 5 0 0 0;
#X connect 6 0 3 0;
#X connect 6 0 8 0;
#X connect 7 0 4 0;
#X restore 166 111 pd showcase;
#N canvas 1156 378 450 300 show 0;
#X obj 104 119 r oscallthethings;
#X obj 104 194 outlet;
#X obj 104 155 * 30;
#X connect 0 0 2 0;
#X connect 2 0 1 0;
#X restore 218 135 pd show;
#X obj 175 168 mtcf-rotate 0;
#X obj 285 204 mtcf-polygon;
#N canvas 765 386 450 407 showcase 0;
#X obj 47 291 mtcf-text;
#X obj 81 61 mtcf-init;
#X obj 42 54 bng 15 250 50 0 empty empty empty 17 7 0 10 -262144 -1
-1;
#X obj 42 236 mtcf-translate -0.08 0.1;
#X obj 65 199 outlet;
#X obj 139 172 mtcf-square 0.1;
#X obj 29 103 mtcf-translate 0.6 0.8;
#X msg 54 261 write mtcf-scalexy;
#X obj 143 202 outlet;
#X connect 1 0 7 0;
#X connect 1 0 5 0;
#X connect 1 0 6 0;
#X connect 2 0 5 0;
#X connect 2 0 6 0;
#X connect 3 0 0 0;
#X connect 5 0 4 0;
#X connect 6 0 3 0;
#X connect 6 0 8 0;
#X connect 7 0 0 0;
#X restore 285 112 pd showcase;
#N canvas 1156 378 450 300 show 0;
#X obj 104 119 r oscallthethings;
#X obj 104 194 outlet;
#X obj 104 155 expr 1+ $f1*0.1;
#X connect 0 0 2 0;
#X connect 2 0 1 0;
#X restore 337 136 pd show;
#X obj 402 208 mtcf-polygon;
#N canvas 765 386 450 407 showcase 0;
#X obj 47 291 mtcf-text;
#X obj 81 61 mtcf-init;
#X obj 42 54 bng 15 250 50 0 empty empty empty 17 7 0 10 -262144 -1
-1;
#X obj 42 236 mtcf-translate -0.08 0.1;
#X obj 65 199 outlet;
#X obj 139 172 mtcf-square 0.1;
#X obj 29 103 mtcf-translate 0.8 0.8;
#X msg 55 261 write mtcf-scale;
#X obj 132 200 outlet;
#X connect 1 0 7 0;
#X connect 1 0 5 0;
#X connect 1 0 6 0;
#X connect 2 0 5 0;
#X connect 2 0 6 0;
#X connect 3 0 0 0;
#X connect 5 0 4 0;
#X connect 6 0 3 0;
#X connect 6 0 8 0;
#X connect 7 0 0 0;
#X restore 402 116 pd showcase;
#X obj 296 171 mtcf-scalexy 0;
#N canvas 1156 378 450 300 show 0;
#X obj 104 119 r oscallthethings;
#X obj 104 194 outlet;
#X obj 104 155 expr 1+ $f1*0.2;
#X connect 0 0 2 0;
#X connect 2 0 1 0;
#X restore 435 143 pd show;
#X obj 410 173 mtcf-scale 1 1;
#X connect 2 0 1 0;
#X connect 2 1 4 0;
#X connect 3 0 4 1;
#X connect 4 0 1 0;
#X connect 7 0 6 0;
#X connect 7 1 9 0;
#X connect 8 0 9 1;
#X connect 9 0 6 0;
#X connect 11 0 10 0;
#X connect 11 1 15 0;
#X connect 12 0 15 1;
#X connect 14 0 13 0;
#X connect 14 1 17 0;
#X connect 15 0 10 0;
#X connect 16 0 17 1;
#X connect 17 0 13 0;
#X restore 398 282 pd transformations;
#X connect 0 0 1 0;
#X connect 6 0 7 0;
#X connect 8 0 5 0;
#X connect 16 0 20 0;
#X connect 17 0 20 0;
#X connect 18 0 19 0;
#X connect 19 0 15 0;
#X connect 20 0 15 0;
#X connect 24 0 18 0;
