#N canvas 1013 463 343 494 10;
#X text 23 435 Musical Tabletop Coding Framework PD Client;
#X text 22 450 (C) Carles F. Julia carles.fernandez@upf.edu;
#X text 23 465 This software is released under the MIT license;
#X obj 25 20 mtcf-comm;
#X obj 243 178 bng 15 250 50 0 empty empty empty 17 7 0 10 -262144
-1 -1;
#X obj 243 200 mtcf-reset;
#X obj 28 190 mybird;
#X msg 244 256 1;
#X obj 244 230 loadbang;
#X obj 243 307 s mybirdupdate;
#X obj 244 279 metro 100;
#X msg 274 256 25;
#X obj 28 210 mybird;
#X obj 71 190 mybird;
#X obj 71 210 mybird;
#X obj 114 190 mybird;
#X obj 114 210 mybird;
#X obj 157 190 mybird;
#X obj 157 210 mybird;
#X obj 28 230 mybird;
#X obj 28 251 mybird;
#X obj 71 230 mybird;
#X obj 71 251 mybird;
#X obj 114 230 mybird;
#X obj 114 251 mybird;
#X obj 157 230 mybird;
#X obj 157 251 mybird;
#X msg 304 257 50;
#X connect 4 0 5 0;
#X connect 7 0 10 0;
#X connect 8 0 7 0;
#X connect 10 0 9 0;
#X connect 11 0 10 1;
#X connect 27 0 10 1;
