#N canvas 837 258 1017 499 10;
#X obj 273 36 loadbang;
#X msg 273 57 \; pd dsp 1;
#X text 546 14 Musical Tabletop Coding Framework PD Client;
#X text 545 29 (C) Carles F. Julia carles.fernandez@upf.edu;
#X text 546 44 This software is released under the MIT license;
#X obj 13 7 mtcf-comm;
#X obj 273 105 bng 15 250 50 0 empty empty empty 17 7 0 10 -262144
-1 -1;
#X obj 273 129 mtcf-reset;
#X msg 270 7 ip localhost;
#X text 44 169;
#X obj 71 318 mtcf-polygon;
#X obj 89 247 bng 15 250 50 0 empty empty empty 17 7 0 10 -262144 -1
-1;
#X msg 46 185 transform;
#X obj 88 275 mtcf-circle 0.1 20;
#X obj 53 419 mtcf-text;
#X msg 73 388 write fingers;
#X floatatom 244 397 5 0 0 0 - - -;
#X floatatom 278 397 5 0 0 0 - - -;
#X floatatom 312 397 5 0 0 0 - - -;
#X obj 227 398 tgl 15 0 empty empty empty 17 7 0 10 -262144 -1 -1 0
1;
#X obj 207 368 mtcf-finger 0 0 0 0;
#N canvas 713 247 450 607 showfinger 0;
#X obj 41 41 inlet;
#X obj 85 41 inlet;
#X obj 129 41 inlet;
#X obj 171 41 inlet;
#X obj 53 474 outlet;
#X obj 54 207 mtcf-text;
#X obj 51 148 mtcf-translate 0 0.02;
#X obj 192 145 pack f f;
#X msg 74 176 write \$1_\$2;
#X msg 160 178 color 255 0 0;
#X obj 254 144 select 0 1;
#X msg 254 177 color 0 255 0;
#X connect 0 0 6 0;
#X connect 1 0 10 0;
#X connect 2 0 7 0;
#X connect 3 0 7 1;
#X connect 6 0 5 0;
#X connect 6 0 4 0;
#X connect 7 0 8 0;
#X connect 8 0 5 0;
#X connect 9 0 5 0;
#X connect 10 0 9 0;
#X connect 10 1 11 0;
#X connect 11 0 5 0;
#X restore 198 424 pd showfinger;
#X floatatom 372 398 5 0 0 0 - - -;
#X floatatom 406 398 5 0 0 0 - - -;
#X floatatom 440 398 5 0 0 0 - - -;
#X obj 355 399 tgl 15 0 empty empty empty 17 7 0 10 -262144 -1 -1 0
1;
#X obj 335 369 mtcf-finger 0 0 0 0;
#N canvas 713 247 450 607 showfinger 0;
#X obj 41 41 inlet;
#X obj 85 41 inlet;
#X obj 129 41 inlet;
#X obj 171 41 inlet;
#X obj 53 474 outlet;
#X obj 54 207 mtcf-text;
#X obj 51 148 mtcf-translate 0 0.02;
#X obj 192 145 pack f f;
#X msg 74 176 write \$1_\$2;
#X msg 160 178 color 255 0 0;
#X obj 254 144 select 0 1;
#X msg 254 177 color 0 255 0;
#X connect 0 0 6 0;
#X connect 1 0 10 0;
#X connect 2 0 7 0;
#X connect 3 0 7 1;
#X connect 6 0 5 0;
#X connect 6 0 4 0;
#X connect 7 0 8 0;
#X connect 8 0 5 0;
#X connect 9 0 5 0;
#X connect 10 0 9 0;
#X connect 10 1 11 0;
#X connect 11 0 5 0;
#X restore 330 424 pd showfinger;
#X obj 207 342 route finger;
#X floatatom 502 398 5 0 0 0 - - -;
#X floatatom 536 398 5 0 0 0 - - -;
#X floatatom 570 398 5 0 0 0 - - -;
#X obj 485 399 tgl 15 0 empty empty empty 17 7 0 10 -262144 -1 -1 0
1;
#X obj 465 369 mtcf-finger 0 0 0 0;
#N canvas 713 247 450 607 showfinger 0;
#X obj 41 41 inlet;
#X obj 85 41 inlet;
#X obj 129 41 inlet;
#X obj 171 41 inlet;
#X obj 53 474 outlet;
#X obj 54 207 mtcf-text;
#X obj 51 148 mtcf-translate 0 0.02;
#X obj 192 145 pack f f;
#X msg 74 176 write \$1_\$2;
#X msg 160 178 color 255 0 0;
#X obj 254 144 select 0 1;
#X msg 254 177 color 0 255 0;
#X connect 0 0 6 0;
#X connect 1 0 10 0;
#X connect 2 0 7 0;
#X connect 3 0 7 1;
#X connect 6 0 5 0;
#X connect 6 0 4 0;
#X connect 7 0 8 0;
#X connect 8 0 5 0;
#X connect 9 0 5 0;
#X connect 10 0 9 0;
#X connect 10 1 11 0;
#X connect 11 0 5 0;
#X restore 460 424 pd showfinger;
#X obj 50 360 mtcf-translate -0.2 0.2;
#X obj 47 214 mtcf-translate 0.5 0.3;
#X obj 414 258 mtcf-polygon;
#X obj 166 167 mtcf-init;
#X obj 390 166 bng 15 250 50 0 empty empty empty 17 7 0 10 -262144
-1 -1;
#X obj 385 189 mtcf-circle 0.05 20;
#X msg 441 91 transform;
#X obj 442 125 mtcf-translate 0.3 0.8;
#X obj 544 174 route finger;
#X obj 543 198 mtcf-finger;
#X obj 541 221 select 0 1;
#X msg 543 247 color 255 0 0;
#X msg 534 270 color 255 255 255;
#X obj 395 340 mtcf-text;
#X obj 392 281 mtcf-translate -0.05 0.1;
#X obj 699 256 mtcf-polygon;
#X obj 675 164 bng 15 250 50 0 empty empty empty 17 7 0 10 -262144
-1 -1;
#X obj 670 187 mtcf-circle 0.05 20;
#X msg 726 89 transform;
#X obj 845 165 route finger;
#X obj 844 189 mtcf-finger;
#X obj 842 212 select 0 1;
#X msg 844 238 color 255 0 0;
#X msg 835 261 color 255 255 255;
#X obj 677 279 mtcf-translate -0.05 0.1;
#X obj 675 343 mtcf-text;
#X obj 727 123 mtcf-translate 0.6 0.8;
#X msg 700 307 write touchable%200;
#X msg 415 309 write touchable%201;
#X msg 871 124 touchable 0;
#X msg 593 124 touchable 1;
#X obj 411 52 mtcf-init;
#X obj 833 73 mtcf-init;
#X connect 0 0 1 0;
#X connect 6 0 7 0;
#X connect 8 0 5 0;
#X connect 10 0 28 0;
#X connect 11 0 13 0;
#X connect 12 0 36 0;
#X connect 13 0 10 0;
#X connect 15 0 14 0;
#X connect 16 0 21 2;
#X connect 17 0 21 3;
#X connect 19 0 21 1;
#X connect 20 0 26 0;
#X connect 20 1 19 0;
#X connect 20 2 16 0;
#X connect 20 3 17 0;
#X connect 20 4 18 0;
#X connect 21 0 27 0;
#X connect 22 0 27 2;
#X connect 23 0 27 3;
#X connect 25 0 27 1;
#X connect 26 0 33 0;
#X connect 26 1 25 0;
#X connect 26 2 22 0;
#X connect 26 3 23 0;
#X connect 26 4 24 0;
#X connect 27 0 34 0;
#X connect 28 0 20 0;
#X connect 29 0 34 2;
#X connect 30 0 34 3;
#X connect 32 0 34 1;
#X connect 33 1 32 0;
#X connect 33 2 29 0;
#X connect 33 3 30 0;
#X connect 33 4 31 0;
#X connect 35 0 14 0;
#X connect 35 0 21 0;
#X connect 36 0 10 0;
#X connect 36 0 35 0;
#X connect 37 0 43 0;
#X connect 38 0 11 0;
#X connect 38 0 12 0;
#X connect 38 0 15 0;
#X connect 39 0 40 0;
#X connect 40 0 37 0;
#X connect 41 0 42 0;
#X connect 42 0 37 0;
#X connect 42 0 49 0;
#X connect 43 0 44 0;
#X connect 44 1 45 0;
#X connect 45 0 47 0;
#X connect 45 1 46 0;
#X connect 46 0 37 0;
#X connect 47 0 37 0;
#X connect 49 0 48 0;
#X connect 50 0 54 0;
#X connect 51 0 52 0;
#X connect 52 0 50 0;
#X connect 53 0 61 0;
#X connect 54 0 55 0;
#X connect 55 1 56 0;
#X connect 56 0 58 0;
#X connect 56 1 57 0;
#X connect 57 0 50 0;
#X connect 58 0 50 0;
#X connect 59 0 60 0;
#X connect 61 0 50 0;
#X connect 61 0 59 0;
#X connect 62 0 60 0;
#X connect 63 0 48 0;
#X connect 64 0 50 0;
#X connect 65 0 37 0;
#X connect 66 0 41 0;
#X connect 66 0 39 0;
#X connect 66 0 65 0;
#X connect 66 0 63 0;
#X connect 67 0 53 0;
#X connect 67 0 64 0;
#X connect 67 0 51 0;
#X connect 67 0 62 0;
