#N canvas 835 267 1017 615 10;
#X obj 273 36 loadbang;
#X msg 273 57 \; pd dsp 1;
#X text 546 14 Musical Tabletop Coding Framework PD Client;
#X text 545 29 (C) Carles F. Julia carles.fernandez@upf.edu;
#X obj 13 7 mtcf-comm;
#X obj 273 105 bng 15 250 50 0 empty empty empty 17 7 0 10 -262144
-1 -1;
#X obj 273 129 mtcf-reset;
#X msg 270 7 ip localhost;
#X obj 70 385 mtcf-polygon;
#X obj 88 314 bng 15 250 50 0 empty empty empty 17 7 0 10 -262144 -1
-1;
#X msg 77 249 transform;
#X obj 87 342 mtcf-circle 0.1 20;
#X obj 299 182 mtcf-init;
#X obj 266 377 mtcf-polygon;
#X obj 283 334 mtcf-circle 0.1 20;
#X obj 479 375 mtcf-polygon;
#X obj 496 332 mtcf-circle 0.1 20;
#X obj 271 274 mtcf-translate 0.1 0;
#X obj 473 278 mtcf-translate 0.1 0;
#X obj 136 364 mtcf-rgbcolor 255 0 0;
#X obj 289 309 bng 15 250 50 0 empty empty empty 17 7 0 10 -262144
-1 -1;
#X obj 302 359 mtcf-rgbcolor 0 255 0;
#X obj 495 308 bng 15 250 50 0 empty empty empty 17 7 0 10 -262144
-1 -1;
#X obj 504 355 mtcf-rgbcolor 0 0 255;
#X obj 119 427 mtcf-visibility;
#X obj 288 434 mtcf-visibility;
#X obj 490 431 mtcf-visibility;
#X obj 227 505 metro 500;
#X obj 225 480 loadbang;
#X obj 287 479 bng 15 250 50 0 empty empty empty 17 7 0 10 -262144
-1 -1;
#X obj 221 561 select 0 1 2;
#X obj 75 274 mtcf-translate 0.4 0.3;
#N canvas 1259 779 450 300 counter 0;
#X obj 43 46 inlet;
#X obj 49 204 outlet;
#X obj 56 126 f;
#X obj 87 125 + 1;
#X obj 87 149 mod 3;
#X connect 0 0 2 0;
#X connect 2 0 3 0;
#X connect 2 0 1 0;
#X connect 3 0 4 0;
#X connect 4 0 2 1;
#X restore 227 534 pd counter;
#X connect 0 0 1 0;
#X connect 5 0 6 0;
#X connect 7 0 4 0;
#X connect 9 0 11 0;
#X connect 9 0 19 0;
#X connect 10 0 31 0;
#X connect 11 0 8 0;
#X connect 12 0 9 0;
#X connect 12 0 10 0;
#X connect 12 0 20 0;
#X connect 12 0 22 0;
#X connect 14 0 13 0;
#X connect 16 0 15 0;
#X connect 17 0 13 0;
#X connect 17 0 18 0;
#X connect 18 0 15 0;
#X connect 19 0 8 0;
#X connect 20 0 21 0;
#X connect 20 0 14 0;
#X connect 21 0 13 0;
#X connect 22 0 16 0;
#X connect 22 0 23 0;
#X connect 23 0 15 0;
#X connect 24 0 8 0;
#X connect 25 0 13 0;
#X connect 26 0 15 0;
#X connect 27 0 32 0;
#X connect 28 0 27 0;
#X connect 29 0 27 0;
#X connect 30 0 24 2;
#X connect 30 1 25 2;
#X connect 30 2 26 2;
#X connect 31 0 8 0;
#X connect 31 0 17 0;
#X connect 32 0 30 0;
