#N canvas 87 233 1017 615 10;
#X obj 273 36 loadbang;
#X msg 273 57 \; pd dsp 1;
#X text 546 14 Musical Tabletop Coding Framework PD Client;
#X text 545 29 (C) Carles F. Julia carles.fernandez@upf.edu;
#X obj 13 7 mtcf-comm;
#X obj 273 105 bng 15 250 50 0 empty empty empty 17 7 0 10 -262144
-1 -1;
#X obj 273 129 mtcf-reset;
#X msg 270 7 ip localhost;
#X obj 70 385 mtcf-polygon;
#X obj 627 287 mtcf-init;
#X obj 260 385 mtcf-polygon;
#X obj 411 386 mtcf-polygon;
#X obj 112 352 mtcf-visibility;
#X obj 282 352 mtcf-visibility;
#X obj 411 353 mtcf-visibility;
#X obj 289 197 metro 500;
#X obj 289 175 loadbang;
#X obj 289 241 select 0 1 2;
#N canvas 1259 779 450 300 counter 0;
#X obj 43 46 inlet;
#X obj 49 204 outlet;
#X obj 56 126 f;
#X obj 87 125 + 1;
#X obj 87 149 mod 3;
#X connect 0 0 2 0;
#X connect 2 0 3 0;
#X connect 2 0 1 0;
#X connect 3 0 4 0;
#X connect 4 0 2 1;
#X restore 289 218 pd counter;
#X obj 584 385 mtcf-polygon;
#X obj 584 352 mtcf-visibility;
#X msg 627 320 99;
#N canvas 657 246 450 300 makecircle 0;
#X obj 138 151 mtcf-circle 0.1 20;
#X obj 188 194 mtcf-rgbcolor 255 0 0;
#X obj 73 107 mtcf-translate 0.4 0.3;
#X obj 97 254 outlet;
#X obj 73 56 t b b b;
#X obj 71 25 mtcf-init;
#X connect 0 0 3 0;
#X connect 1 0 3 0;
#X connect 2 0 3 0;
#X connect 4 0 2 0;
#X connect 4 1 0 0;
#X connect 4 2 1 0;
#X connect 5 0 4 0;
#X restore 70 320 pd makecircle;
#N canvas 653 264 450 300 makecircle 0;
#X obj 138 151 mtcf-circle 0.1 20;
#X obj 97 254 outlet;
#X obj 73 56 t b b b;
#X obj 71 25 mtcf-init;
#X obj 73 107 mtcf-translate 0.5 0.3;
#X obj 188 194 mtcf-rgbcolor 0 255 0;
#X connect 0 0 1 0;
#X connect 2 0 4 0;
#X connect 2 1 0 0;
#X connect 2 2 5 0;
#X connect 3 0 2 0;
#X connect 4 0 1 0;
#X connect 5 0 1 0;
#X restore 256 320 pd makecircle;
#N canvas 651 273 450 300 makecircle 0;
#X obj 138 151 mtcf-circle 0.1 20;
#X obj 97 254 outlet;
#X obj 73 56 t b b b;
#X obj 71 25 mtcf-init;
#X obj 73 107 mtcf-translate 0.6 0.3;
#X obj 188 194 mtcf-rgbcolor 0 0 255;
#X connect 0 0 1 0;
#X connect 2 0 4 0;
#X connect 2 1 0 0;
#X connect 2 2 5 0;
#X connect 3 0 2 0;
#X connect 4 0 1 0;
#X connect 5 0 1 0;
#X restore 411 320 pd makecircle;
#N canvas 651 273 450 300 makecircle 0;
#X obj 138 151 mtcf-circle 0.1 20;
#X obj 97 254 outlet;
#X obj 73 56 t b b b;
#X obj 71 25 mtcf-init;
#X obj 73 107 mtcf-translate 0.5 0.4;
#X obj 188 194 mtcf-rgbcolor 255 255 255;
#X connect 0 0 1 0;
#X connect 2 0 4 0;
#X connect 2 1 0 0;
#X connect 2 2 5 0;
#X connect 3 0 2 0;
#X connect 4 0 1 0;
#X connect 5 0 1 0;
#X restore 569 256 pd makecircle;
#X obj 199 320 bng 15 250 50 0 empty empty empty 17 7 0 10 -262144
-1 -1;
#X obj 369 320 bng 15 250 50 0 empty empty empty 17 7 0 10 -262144
-1 -1;
#X obj 513 320 bng 15 250 50 0 empty empty empty 17 7 0 10 -262144
-1 -1;
#X text 85 427 You can move objects inside a same layer using the third
inlet: bring top;
#X text 542 426 You can mo0ve an object between layers with the second
inlet: layer;
#X connect 0 0 1 0;
#X connect 5 0 6 0;
#X connect 7 0 4 0;
#X connect 9 0 21 0;
#X connect 12 0 8 0;
#X connect 13 0 10 0;
#X connect 14 0 11 0;
#X connect 15 0 18 0;
#X connect 16 0 15 0;
#X connect 17 0 26 0;
#X connect 17 1 27 0;
#X connect 17 2 28 0;
#X connect 18 0 17 0;
#X connect 20 0 19 0;
#X connect 21 0 20 1;
#X connect 22 0 8 0;
#X connect 23 0 10 0;
#X connect 24 0 11 0;
#X connect 25 0 19 0;
#X connect 26 0 12 2;
#X connect 27 0 13 2;
#X connect 28 0 14 2;
