#N canvas 782 594 626 626 10;
#X floatatom 130 255 5 0 0 0 x - -;
#X floatatom 175 255 5 0 0 0 y - -;
#X obj 317 251 mtcf-polygon;
#X obj 309 134 bng 15 250 50 0 empty empty empty 17 7 0 10 -262144
-1 -1;
#X obj 375 196 mtcf-circle 0.01 20;
#X obj 245 195 mtcf-translate 0 0;
#X obj 420 346 throw~ bola;
#X obj 99 92 inlet;
#X obj 160 91 inlet;
#X obj 111 522 outlet;
#X obj 168 521 outlet;
#X obj 118 199 line;
#X msg 118 163 \$1 100;
#X obj 173 196 line;
#X msg 173 160 \$1 100;
#X obj 118 435 pipe 100;
#X obj 175 433 pipe 100;
#X obj 320 297 osc~ 1;
#X obj 320 275 * 500;
#X obj 334 348 *~;
#X obj 311 103 mtcf-init;
#X connect 0 0 5 1;
#X connect 0 0 19 1;
#X connect 0 0 15 0;
#X connect 1 0 5 2;
#X connect 1 0 18 0;
#X connect 1 0 16 0;
#X connect 3 0 4 0;
#X connect 3 0 5 0;
#X connect 4 0 2 0;
#X connect 5 0 2 0;
#X connect 7 0 12 0;
#X connect 8 0 14 0;
#X connect 11 0 0 0;
#X connect 12 0 11 0;
#X connect 13 0 1 0;
#X connect 14 0 13 0;
#X connect 15 0 9 0;
#X connect 16 0 10 0;
#X connect 17 0 19 0;
#X connect 18 0 17 0;
#X connect 19 0 6 0;
#X connect 20 0 3 0;
