#N canvas 21 254 398 653 10;
#X obj 273 36 loadbang;
#X msg 273 57 \; pd dsp 1;
#X text 41 581 Musical Tabletop Coding Framework PD Client;
#X text 40 596 (C) Carles F. Julia carles.fernandez@upf.edu;
#X text 41 611 This software is released under the MIT license;
#X text 52 162 receive mtcf-fingers;
#X obj 13 7 mtcf-comm;
#X obj 273 105 bng 15 250 50 0 empty empty empty 17 7 0 10 -262144
-1 -1;
#X obj 273 129 mtcf-reset;
#X msg 270 7 ip localhost;
#X obj 31 188 mtcf-fingers;
#X obj 46 239 tgl 15 0 empty empty empty 17 7 0 10 -262144 -1 -1 0
1;
#X floatatom 74 238 5 0 0 0 x - -;
#X floatatom 119 238 5 0 0 0 y - -;
#X obj 31 215 mtcf-finger;
#X obj 243 409 output~;
#X obj 258 357 catch~ bola;
#X obj 43 331 spigot;
#X obj 75 299 == 0;
#X obj 102 331 spigot;
#X obj 45 366 bola;
#X obj 45 394 bola;
#X obj 45 422 bola;
#X obj 45 450 bola;
#X obj 45 472 bola;
#X obj 45 500 bola;
#X obj 45 528 bola;
#X obj 45 556 bola;
#X obj 116 364 bola;
#X obj 116 392 bola;
#X obj 116 420 bola;
#X obj 116 448 bola;
#X obj 116 471 bola;
#X obj 116 499 bola;
#X obj 116 527 bola;
#X obj 116 555 bola;
#X obj 187 366 bola;
#X obj 187 394 bola;
#X obj 187 422 bola;
#X obj 187 450 bola;
#X obj 189 542 mtcf-transform-update-interval;
#X msg 189 510 30;
#X connect 0 0 1 0;
#X connect 7 0 8 0;
#X connect 9 0 6 0;
#X connect 10 0 14 0;
#X connect 11 0 18 0;
#X connect 12 0 20 0;
#X connect 13 0 20 1;
#X connect 14 1 11 0;
#X connect 14 2 12 0;
#X connect 14 3 13 0;
#X connect 16 0 15 0;
#X connect 16 0 15 1;
#X connect 17 0 20 0;
#X connect 18 0 17 1;
#X connect 18 0 19 1;
#X connect 19 0 20 1;
#X connect 20 0 21 0;
#X connect 20 1 21 1;
#X connect 21 0 22 0;
#X connect 21 1 22 1;
#X connect 22 0 23 0;
#X connect 22 1 23 1;
#X connect 23 0 24 0;
#X connect 23 1 24 1;
#X connect 24 0 25 0;
#X connect 24 1 25 1;
#X connect 25 0 26 0;
#X connect 25 1 26 1;
#X connect 26 0 27 0;
#X connect 26 1 27 1;
#X connect 27 0 28 0;
#X connect 27 1 28 1;
#X connect 28 0 29 0;
#X connect 28 1 29 1;
#X connect 29 0 30 0;
#X connect 29 1 30 1;
#X connect 30 0 31 0;
#X connect 30 1 31 1;
#X connect 31 0 32 0;
#X connect 31 1 32 1;
#X connect 32 0 33 0;
#X connect 32 1 33 1;
#X connect 33 0 34 0;
#X connect 33 1 34 1;
#X connect 34 0 35 0;
#X connect 34 1 35 1;
#X connect 35 0 36 0;
#X connect 35 1 36 1;
#X connect 36 0 37 0;
#X connect 36 1 37 1;
#X connect 37 0 38 0;
#X connect 37 1 38 1;
#X connect 38 0 39 0;
#X connect 38 1 39 1;
#X connect 39 0 17 0;
#X connect 39 1 19 0;
#X connect 41 0 40 0;
