#N canvas 894 234 838 621 10;
#X obj 273 36 loadbang;
#X msg 273 57 \; pd dsp 1;
#X text 546 14 Musical Tabletop Coding Framework PD Client;
#X text 545 29 (C) Carles F. Julia carles.fernandez@upf.edu;
#X text 546 44 This software is released under the MIT license;
#X obj 13 155 cnv 15 300 150 empty empty empty 20 12 0 14 -204800 -66577
0;
#X text 52 162 receive mtcf-fingers;
#X obj 477 462 cnv 15 300 150 empty empty empty 20 12 0 14 -232576
-66577 0;
#X text 487 466 Other graphics and elements:;
#X text 488 481 painting \, sensing mtcf-finger collisions \, etc.
;
#X obj 13 7 mtcf-comm;
#X obj 273 105 bng 15 250 50 0 empty empty empty 17 7 0 10 -262144
-1 -1;
#X obj 273 129 mtcf-reset;
#X msg 270 7 ip localhost;
#X obj 31 188 mtcf-fingers;
#X obj 550 528 mtcf-graphics-help;
#X obj 550 550 mtcf-fingers-help;
#X obj 550 572 mtcf-composedwidgets-help;
#X obj 46 466 tgl 15 0 empty empty empty 17 7 0 10 -262144 -1 -1 0
1;
#X floatatom 74 465 5 0 0 0 x - -;
#X floatatom 119 465 5 0 0 0 y - -;
#X obj 31 442 mtcf-finger;
#X obj 46 533 tgl 15 0 empty empty empty 17 7 0 10 -262144 -1 -1 0
1;
#X floatatom 74 532 5 0 0 0 x - -;
#X floatatom 119 532 5 0 0 0 y - -;
#X obj 31 509 mtcf-finger;
#X obj 46 583 tgl 15 0 empty empty empty 17 7 0 10 -262144 -1 -1 0
1;
#X floatatom 74 582 5 0 0 0 x - -;
#X floatatom 119 582 5 0 0 0 y - -;
#X obj 31 559 mtcf-finger;
#X obj 625 328 output~;
#X obj 640 276 catch~ bola;
#X obj 227 395 spigot;
#X obj 259 363 == 0;
#X obj 286 395 spigot;
#X obj 229 430 bola;
#X obj 229 458 bola;
#X obj 229 486 bola;
#X obj 229 514 bola;
#X obj 264 428 bola;
#X obj 264 456 bola;
#X obj 264 484 bola;
#X obj 264 512 bola;
#X obj 300 428 bola;
#X obj 300 456 bola;
#X obj 300 484 bola;
#X obj 300 512 bola;
#X obj 336 430 bola;
#X obj 336 458 bola;
#X obj 336 486 bola;
#X obj 336 514 bola;
#X obj 371 430 bola;
#X obj 371 458 bola;
#X obj 371 486 bola;
#X obj 371 514 bola;
#X connect 0 0 1 0;
#X connect 11 0 12 0;
#X connect 13 0 10 0;
#X connect 14 0 21 0;
#X connect 18 0 33 0;
#X connect 19 0 35 0;
#X connect 20 0 35 1;
#X connect 21 0 25 0;
#X connect 21 1 18 0;
#X connect 21 2 19 0;
#X connect 21 3 20 0;
#X connect 25 0 29 0;
#X connect 25 1 22 0;
#X connect 25 2 23 0;
#X connect 25 3 24 0;
#X connect 29 1 26 0;
#X connect 29 2 27 0;
#X connect 29 3 28 0;
#X connect 31 0 30 0;
#X connect 31 0 30 1;
#X connect 32 0 35 0;
#X connect 33 0 32 1;
#X connect 33 0 34 1;
#X connect 34 0 35 1;
#X connect 35 0 36 0;
#X connect 35 1 36 1;
#X connect 36 0 37 0;
#X connect 36 1 37 1;
#X connect 37 0 38 0;
#X connect 37 1 38 1;
#X connect 38 0 39 0;
#X connect 38 1 39 1;
#X connect 39 0 40 0;
#X connect 39 1 40 1;
#X connect 40 0 41 0;
#X connect 40 1 41 1;
#X connect 41 0 42 0;
#X connect 41 1 42 1;
#X connect 42 0 43 0;
#X connect 42 1 43 1;
#X connect 43 0 44 0;
#X connect 43 1 44 1;
#X connect 44 0 45 0;
#X connect 44 1 45 1;
#X connect 45 0 46 0;
#X connect 45 1 46 1;
#X connect 46 0 47 0;
#X connect 46 1 47 1;
#X connect 47 0 48 0;
#X connect 47 1 48 1;
#X connect 48 0 49 0;
#X connect 48 1 49 1;
#X connect 49 0 50 0;
#X connect 49 1 50 1;
#X connect 50 0 51 0;
#X connect 50 1 51 1;
#X connect 51 0 52 0;
#X connect 51 1 52 1;
#X connect 52 0 53 0;
#X connect 52 1 53 1;
#X connect 53 0 54 0;
#X connect 53 1 54 1;
#X connect 54 0 32 0;
#X connect 54 1 34 0;
